<svg width="166" height="34" viewBox="0 0 166 34" fill="none" xmlns="http://www.w3.org/2000/svg">
<g clip-path="url(#clip0_785_10850)">
<path d="M78.6815 24.92C73.8834 24.92 69.981 21.0256 69.981 16.2374C69.981 11.4491 73.8834 7.55469 78.6815 7.55469C83.4796 7.55469 87.3821 11.4491 87.3821 16.2374C87.3821 21.0256 83.4796 24.92 78.6815 24.92ZM78.6815 11.1441C75.8666 11.1441 73.5778 13.4283 73.5778 16.2374C73.5778 19.0464 75.8666 21.3306 78.6815 21.3306C81.4964 21.3306 83.7853 19.0464 83.7853 16.2374C83.7853 13.4283 81.4964 11.1441 78.6815 11.1441Z" fill="white"/>
<path d="M65.1829 24.4455H61.5933V15.5854C61.5933 11.1661 65.1972 7.5625 69.6327 7.5625V11.1448C67.1804 11.1448 65.1901 13.1381 65.1901 15.5784V24.4384L65.1829 24.4455Z" fill="white"/>
<path d="M166 7.91602L159.723 24.4443H155.906L149.623 7.91602H153.433L157.811 19.422L162.183 7.91602H166Z" fill="#FF8533"/>
<path d="M128.12 1.70898V9.22828C126.684 8.18551 124.921 7.56127 123.016 7.56127C118.218 7.56127 114.315 11.4557 114.315 16.2439C114.315 21.0322 118.218 24.9266 123.016 24.9266C127.814 24.9266 131.717 21.0322 131.717 16.2439V1.70898H128.127H128.12ZM123.016 21.3372C120.201 21.3372 117.912 19.053 117.912 16.2439C117.912 13.4348 120.201 11.1507 123.016 11.1507C125.831 11.1507 128.12 13.4348 128.12 16.2439C128.12 19.053 125.831 21.3372 123.016 21.3372Z" fill="#FF8533"/>
<path d="M146.701 17.8968C146.011 19.8972 144.113 21.3443 141.874 21.3443C140.566 21.3443 139.379 20.8477 138.477 20.039L144.32 16.9959L150.241 13.9172C149.217 10.264 145.855 7.56836 141.874 7.56836C137.076 7.56836 133.174 11.4628 133.174 16.251C133.174 21.0393 137.076 24.9337 141.874 24.9337C146.104 24.9337 149.637 21.9047 150.411 17.9038H146.701V17.8968ZM136.771 16.2439C136.771 13.4348 139.059 11.1507 141.874 11.1507C143.182 11.1507 144.369 11.6472 145.272 12.4559L136.806 16.8611C136.785 16.6625 136.764 16.4567 136.764 16.2439H136.771Z" fill="#FF8533"/>
<path d="M111.529 7.91602L107.158 19.422L102.786 7.91602H98.9688L94.5972 19.422L90.2185 7.91602H86.4014L92.6851 24.4443H96.5022L100.874 12.9383L105.253 24.4443H109.063L115.346 7.91602H111.529Z" fill="white"/>
<path d="M56.7596 9.98782C58.3874 8.75352 59.4394 6.80985 59.4394 4.625H55.8497C55.8497 6.36295 54.4281 7.78169 52.6865 7.78169C52.061 7.64691 51.4141 7.56178 50.746 7.56178C45.9479 7.56178 42.0454 11.4562 42.0454 16.2444C42.0454 21.0327 45.9479 24.9271 50.746 24.9271C52.5017 24.9271 54.1366 24.4022 55.5085 23.5013C55.7289 24.0688 55.8497 24.6788 55.8497 25.3244C55.8497 28.1334 53.5608 30.4176 50.746 30.4176C47.9311 30.4176 45.6422 28.1334 45.6422 25.3244H42.0525C42.0525 30.1126 45.955 34.007 50.7531 34.007C55.5512 34.007 59.4536 30.1126 59.4536 25.3244C59.4536 23.6573 58.9703 22.1109 58.1528 20.7915C58.9703 19.465 59.4536 17.9186 59.4536 16.2515C59.4536 13.7971 58.4229 11.5768 56.7738 9.99491L56.7596 9.98782ZM50.746 21.3377C47.9311 21.3377 45.6422 19.0535 45.6422 16.2444C45.6422 13.4353 47.9311 11.1512 50.746 11.1512C53.5608 11.1512 55.8497 13.4353 55.8497 16.2444C55.8497 19.0535 53.5608 21.3377 50.746 21.3377Z" fill="white"/>
<path d="M18.4389 0L0 16.2091L18.4389 32.4181V15.4429L14.3161 19.0678V23.2956L6.24819 16.2091L18.4389 5.49051V0Z" fill="#FF8533"/>
<path d="M19.9102 0V16.9752L24.0401 13.3503V9.12247L32.1009 16.2091L19.9102 26.9276V32.4181L38.3491 16.2091L19.9102 0Z" fill="white"/>
</g>
<defs>
<clipPath id="clip0_785_10850">
<rect width="166" height="34" fill="white"/>
</clipPath>
</defs>
</svg>
